<svg id="Capa_1" enable-background="new 0 0 500.624 500.624" height="512" viewBox="0 0 500.624 500.624" width="512" xmlns="http://www.w3.org/2000/svg"><g><path d="m397.277 0-44.407 44.407c-28.109-.355-55.214 10.605-75.224 30.614l-202.624 202.624c-20.011 20.01-30.955 47.097-30.615 75.225l-44.407 44.407 103.347 103.347 44.566-44.566 133.523-48.683 34.365-64.779c18.12-1.172 34.32-13.612 39.491-31.829l6.928-24.408 63.381-63.381c20.01-20.009 30.954-47.097 30.614-75.225l44.406-44.407zm-265.879 430.147-28.051 28.05-60.921-60.921 32.765-32.764c-3.324-24.09 3.588-48.443 21.044-65.654 0 0 54.831-54.832 54.831-54.832l18.053 98.629 21.08-9.12c11.103-4.801 21.016-11.394 29.491-19.331l65.774 21.563-12.878 24.275-65.039-15.716-7.047 29.161 51.901 12.541zm195.036-127.572c-1.938 6.829-8.771 11.084-15.711 9.903l-71.433-23.418c7.009-12.633 11.371-26.756 12.562-41.524l79.023 39.398zm99.551-159.56c1.747 21.866-6.124 43.28-21.595 58.75l-58.922 58.921-69.253-34.527c34.52-16.983 62.011-45.192 81.891-78.291l-25.055-16.499c-27.178 45.022-61.33 70.892-112.702 82.951l1.581 18.757c2.197 26.052-9.673 50.787-30.386 65.471l-14.698-80.301 122.013-122.013c17.207-17.453 41.558-24.369 65.653-21.043l32.765-32.764 60.921 60.92-32.765 32.764z"/></g></svg>